<?xml version="1.0" encoding="UTF-8"?>
<svg width="30px" height="20px" viewBox="0 0 30 20" version="1.1" xmlns="http://www.w3.org/2000/svg" xmlns:xlink="http://www.w3.org/1999/xlink">
    <title>GiftCard</title>
    <g id="FINAL" stroke="none" stroke-width="1" fill="none" fill-rule="evenodd">
        <g id="SA_Desktop_1440_Nav_Home_FINAL" transform="translate(-1183.000000, -61.000000)" fill="#333333" fill-rule="nonzero">
            <path d="M1211,61 C1212.10457,61 1213,61.8954305 1213,63 L1213,79 C1213,80.1045695 1212.10457,81 1211,81 L1185,81 C1183.89543,81 1183,80.1045695 1183,79 L1183,63 C1183,61.8954305 1183.89543,61 1185,61 L1211,61 Z M1190.292,70 L1184,70 L1184,79 C1184,79.5522847 1184.44772,80 1185,80 L1191,80 L1191,70.706 L1188.35355,73.3535534 C1188.17999,73.5271197 1187.91056,73.5464049 1187.71569,73.4114088 L1187.64645,73.3535534 C1187.45118,73.1582912 1187.45118,72.8417088 1187.64645,72.6464466 L1187.64645,72.6464466 L1190.292,70 Z M1212,70 L1192.707,70 L1195.35355,72.6464466 C1195.52712,72.820013 1195.5464,73.0894374 1195.41141,73.2843055 L1195.35355,73.3535534 C1195.15829,73.5488155 1194.84171,73.5488155 1194.64645,73.3535534 L1194.64645,73.3535534 L1192,70.707 L1192,80 L1211,80 C1211.55228,80 1212,79.5522847 1212,79 L1212,70 Z M1209.5,77 C1209.77614,77 1210,77.2238576 1210,77.5 C1210,77.7761424 1209.77614,78 1209.5,78 L1202.5,78 C1202.22386,78 1202,77.7761424 1202,77.5 C1202,77.2238576 1202.22386,77 1202.5,77 L1209.5,77 Z M1209.5,75 C1209.77614,75 1210,75.2238576 1210,75.5 C1210,75.7761424 1209.77614,76 1209.5,76 L1199.5,76 C1199.22386,76 1199,75.7761424 1199,75.5 C1199,75.2238576 1199.22386,75 1199.5,75 L1209.5,75 Z M1191,62 L1185,62 C1184.44772,62 1184,62.4477153 1184,63 L1184,69 L1188.07819,69.0011888 C1187.71739,68.8189475 1187.39279,68.5999008 1187.14645,68.3535534 C1185.99096,67.1980663 1185.71642,65.5764695 1186.64645,64.6464466 C1187.57647,63.7164237 1189.19807,63.9909596 1190.35355,65.1464466 C1190.5999,65.392794 1190.81895,65.7173904 1191.00119,66.0781946 L1191,62 Z M1211,62 L1192,62 L1191.99981,66.0762143 C1192.18185,65.7162028 1192.40055,65.3923432 1192.64645,65.1464466 C1193.80193,63.9909596 1195.42353,63.7164237 1196.35355,64.6464466 C1197.28358,65.5764695 1197.00904,67.1980663 1195.85355,68.3535534 C1195.60721,68.5999008 1195.28261,68.8189475 1194.92181,69.0011888 L1212,69 L1212,63 C1212,62.4477153 1211.55228,62 1211,62 Z M1189.64645,65.8535534 C1188.8398,65.0469101 1187.83099,64.8761181 1187.35355,65.3535534 C1186.87612,65.8309887 1187.04691,66.8398033 1187.85355,67.6464466 C1188.55514,68.3480359 1190.40487,68.766704 1190.58579,68.5857864 C1190.7667,68.4048688 1190.34804,66.5551427 1189.64645,65.8535534 Z M1195.64645,65.3535534 C1195.16901,64.8761181 1194.1602,65.0469101 1193.35355,65.8535534 C1192.65196,66.5551427 1192.2333,68.4048688 1192.41421,68.5857864 C1192.59513,68.766704 1194.44486,68.3480359 1195.14645,67.6464466 C1195.95309,66.8398033 1196.12388,65.8309887 1195.64645,65.3535534 Z" id="GiftCard"></path>
        </g>
    </g>
</svg>